PathFileType	4	(X/Y/Z)	 s04c0101.trc
DataRate	CameraRate	NumFrames	NumMarkers	Units	OrigDataRate	OrigDataStartFrame	OrigNumFrames
200	200	5	51	mm	200	1751	2000
Frame#	Time	racr			lacr			c7			jug			rlel			rdr			llel			ldr			s2			lic			ric			lasi			rasi			rpsi			lpsi			rgt			lgt			rth1			rth2			rth3			rth4			rlfc			rmfc			rsh1			rsh2			rsh3			rsh4			rlmal			rmmal			rcal			rtoe			rmt5			lth1			lth2			lth4			lth3			llfc			lmfc			lsh1			lsh2			lsh3			lsh4			llmal			lmmal			lcal			ltoe			lmt1			lmt5			SBIKE			LBIKE			RBIKE			
		X1	Y1	Z1	X2	Y2	Z2	X3	Y3	Z3	X4	Y4	Z4	X5	Y5	Z5	X6	Y6	Z6	X7	Y7	Z7	X8	Y8	Z8	X9	Y9	Z9	X10	Y10	Z10	X11	Y11	Z11	X12	Y12	Z12	X13	Y13	Z13	X14	Y14	Z14	X15	Y15	Z15	X16	Y16	Z16	X17	Y17	Z17	X18	Y18	Z18	X19	Y19	Z19	X20	Y20	Z20	X21	Y21	Z21	X22	Y22	Z22	X23	Y23	Z23	X24	Y24	Z24	X25	Y25	Z25	X26	Y26	Z26	X27	Y27	Z27	X28	Y28	Z28	X29	Y29	Z29	X30	Y30	Z30	X31	Y31	Z31	X32	Y32	Z32	X33	Y33	Z33	X34	Y34	Z34	X35	Y35	Z35	X36	Y36	Z36	X37	Y37	Z37	X38	Y38	Z38	X39	Y39	Z39	X40	Y40	Z40	X41	Y41	Z41	X42	Y42	Z42	X43	Y43	Z43	X44	Y44	Z44	X45	Y45	Z45	X46	Y46	Z46	X47	Y47	Z47	X48	Y48	Z48	X49	Y49	Z49	X50	Y50	Z50	X51	Y51	Z51	
1751	8.7550	457.161747	1441.555442	-100.930249	465.298617	1446.829031	-402.057578	407.249457	1517.520953	-251.924640	449.472091	1369.998304	-256.298399	535.405477	1147.291582	-6.008334	694.069375	905.955823	-90.321439	548.848105	1178.787155	-498.576946	698.931350	907.887510	-437.827238	-77.427516	1169.776718	-273.072372	86.381750	1201.321728	-422.919425	73.496103	1180.365618	-104.300230	121.970537	1151.359653	-377.941720	121.266765	1133.302424	-149.814304	-56.290221	1213.284015	-223.776037	-55.103393	1218.441033	-299.501465	23.385529	1110.331281	-95.288603	50.002765	1119.680081	-461.347561	112.692054	970.045265	-70.855263	176.347415	908.380821	-78.782925	202.873443	827.275605	-84.010843	204.246516	927.720742	-94.614525	268.208431	697.298703	-110.503662	251.988659	676.377509	-222.757995	233.310275	579.076079	-84.171470	237.498325	486.998595	-100.937609	196.987727	411.143528	-110.667346	270.123940	485.027075	-122.805634	180.731507	258.906528	-121.152920	208.321000	268.059024	-203.758486	115.670657	232.531717	-163.006319	412.147639	185.642520	-148.167527	342.194598	167.481169	-94.430475	120.694134	1068.481265	-473.421271	206.202452	1059.719256	-481.403371	220.446264	1090.841276	-467.209357	277.867981	1008.198442	-495.989034	408.757990	917.786916	-483.363518	443.635815	895.351936	-372.460726	347.760513	824.395459	-497.559819	305.908282	752.466430	-469.550964	229.576986	707.105936	-461.814158	327.950750	738.637586	-440.792387	124.157434	609.563281	-441.578083	121.237982	615.389208	-354.854888	40.993756	628.286361	-396.122068	300.875850	472.259685	-402.848035	227.007136	485.793388	-353.457146	221.292109	474.792412	-464.858294	-179.939975	940.792753	-278.884425	-4.395420	85.591738	-483.906008	-15.867983	80.305389	-83.297116	
1752	8.7600	457.294731	1441.700732	-101.029485	465.280870	1446.779916	-402.089153	407.248478	1517.564989	-252.075439	449.632496	1370.025430	-256.433550	535.302012	1147.240691	-6.185436	694.053172	905.944053	-90.308649	549.031310	1178.867763	-498.457301	698.912739	907.859373	-437.806287	-77.383330	1169.805657	-273.230209	86.429664	1201.273934	-422.972840	73.469866	1180.429080	-104.369207	122.006168	1151.920585	-378.056647	121.304025	1133.301083	-149.807229	-56.262535	1213.270877	-223.949310	-55.093088	1218.457462	-299.694635	23.334947	1110.305322	-95.425758	50.018352	1120.423222	-461.621681	112.143782	969.412131	-71.032582	175.319553	907.357049	-78.945899	201.215217	826.001273	-84.379849	203.377691	926.441240	-94.943829	265.639119	695.683179	-110.796100	249.176427	674.666791	-223.056734	230.190584	577.333419	-84.540290	233.925769	485.521178	-101.115023	193.040334	409.835288	-110.848794	266.505534	483.403756	-123.001172	176.081364	257.635613	-121.290097	203.815781	266.665530	-203.861234	110.948972	231.649529	-163.142631	407.124308	182.860647	-148.249103	337.059439	165.117070	-94.547452	120.813319	1069.811451	-473.537005	206.391227	1061.993824	-481.499701	220.333082	1093.244298	-467.216452	278.558621	1011.158376	-496.186104	410.586453	921.956632	-483.766353	445.894764	899.786239	-373.124177	350.482227	827.964065	-497.840791	309.254452	755.782567	-469.848598	233.285574	709.802745	-461.928987	331.376616	742.382945	-440.490426	128.741781	611.306400	-441.554058	125.263577	617.080392	-355.168016	45.734740	629.302920	-395.881179	306.166225	475.019833	-402.744647	232.184888	488.264874	-353.347942	226.558017	477.126004	-464.718674	-179.940017	940.799689	-278.847068	-4.396403	85.589208	-483.905441	-15.878128	80.309830	-83.301041	
1753	8.7650	457.404495	1441.812717	-101.106419	465.339709	1446.877827	-402.246560	407.209999	1517.600811	-252.214419	449.767687	1370.051413	-256.544221	535.215520	1147.236059	-6.356183	694.030711	905.977032	-90.343185	549.242246	1178.971444	-498.312728	698.918907	907.843684	-437.803516	-77.345797	1169.803753	-273.374791	86.528999	1201.246569	-423.108375	73.468466	1180.485028	-104.453147	121.752296	1152.327507	-377.601864	121.373132	1133.288089	-149.821459	-56.160944	1213.344297	-224.138240	-55.068746	1218.499292	-299.906021	23.328446	1110.253779	-95.578732	49.969836	1121.199978	-461.858739	111.614130	968.823603	-71.341553	174.353977	906.343246	-79.161635	199.565438	824.750498	-84.789874	202.438044	925.305884	-95.225171	263.185878	694.173814	-111.092249	246.456195	673.237177	-223.347231	227.132207	575.712969	-84.898672	230.391189	484.253171	-101.260363	189.052306	408.751142	-110.946222	262.900304	481.913387	-123.190575	171.386180	256.567674	-121.462631	199.174879	265.423918	-203.968622	106.099669	231.076934	-163.263323	401.942588	180.288293	-148.327486	331.768727	163.013007	-94.642574	120.884577	1071.187365	-473.687681	206.538810	1064.177314	-481.598118	220.178910	1095.517447	-467.196749	279.135192	1014.053470	-496.374545	412.287562	926.079639	-484.119898	447.982591	904.183604	-373.612090	353.313041	831.441762	-498.042830	312.567676	758.887437	-469.991758	237.000239	712.370293	-462.067084	334.820051	745.859500	-440.604000	133.239718	612.837737	-441.547862	129.388240	618.549856	-355.493311	50.180205	630.317396	-395.838493	311.590833	477.742356	-402.604898	237.503254	490.411159	-353.231728	231.997909	479.192846	-464.580227	-179.936317	940.791597	-278.814433	-4.397517	85.564826	-483.914546	-15.874742	80.304568	-83.308481	
1754	8.7700	457.500679	1441.951782	-101.203269	465.406385	1446.978820	-402.432995	407.206718	1517.616457	-252.361946	449.891433	1370.068433	-256.673715	535.142296	1147.234472	-6.522100	694.018238	905.927141	-90.321262	549.462094	1179.098867	-498.141863	698.914103	907.824764	-437.755615	-77.312297	1169.721063	-273.539128	86.612276	1201.227505	-423.271044	73.489655	1180.532203	-104.528272	121.696528	1152.656581	-377.581655	121.429353	1133.270775	-149.866754	-56.109467	1213.352996	-224.270084	-55.039131	1218.517563	-300.102301	23.327499	1110.251874	-95.706800	49.875311	1121.934529	-462.043556	111.050575	968.297245	-71.565433	173.368880	905.525677	-79.279969	198.032623	823.717884	-84.980861	201.583160	924.029412	-95.509902	260.876578	692.764626	-111.375894	243.786413	671.860688	-223.514809	224.139244	574.216304	-85.245897	226.781510	483.000612	-101.487128	185.109564	407.806235	-111.109435	259.329483	480.526080	-123.409358	166.513646	255.696743	-121.596864	194.517781	264.332436	-204.065105	101.155003	230.505291	-163.415501	396.656795	177.762243	-148.420850	326.351001	160.975436	-94.754443	120.919957	1072.489715	-473.875184	206.621009	1066.277631	-481.666823	219.958070	1097.737934	-467.208052	279.704709	1016.877543	-496.595086	413.889250	930.119837	-484.448230	450.000948	908.546087	-374.101900	355.935894	834.867606	-498.314432	315.898565	762.164643	-470.462546	240.898871	714.481392	-462.361816	338.184137	749.160891	-440.681003	137.863208	614.208395	-441.507817	133.829581	619.874233	-355.640566	54.683475	631.074497	-395.914043	317.073363	480.240216	-402.433755	242.909727	492.547014	-353.175939	237.504380	481.197788	-464.456485	-179.936743	940.784985	-278.822836	-4.391227	85.576414	-483.918032	-15.872450	80.301957	-83.309052	
1755	8.7750	457.605851	1442.035517	-101.293748	465.392120	1447.065762	-402.498045	407.165982	1517.658652	-252.467716	450.005160	1370.079288	-256.777785	535.062301	1147.250491	-6.666912	693.991584	905.932608	-90.323735	549.665500	1179.222123	-498.001668	698.908771	907.809518	-437.722955	-77.282239	1169.709678	-273.646022	86.650578	1201.213823	-423.386803	73.533641	1180.575242	-104.636775	121.869321	1153.348507	-378.273351	121.511538	1133.257447	-149.929345	-56.096861	1213.244089	-224.356078	-55.045900	1218.519207	-300.215096	23.355362	1110.219988	-95.841266	49.739461	1122.578802	-462.260451	110.516502	967.813694	-71.756700	172.429807	904.615192	-79.654947	196.391231	822.736599	-84.977508	200.816207	923.105745	-95.708788	258.674094	691.431444	-111.585958	241.479271	670.592443	-223.790085	221.215799	572.845000	-85.581247	223.314164	481.955931	-101.665735	181.139007	407.018734	-111.294487	255.842723	479.273065	-123.556155	161.656995	254.958315	-121.758962	189.710097	263.427190	-204.244323	96.155778	230.290415	-163.629050	391.258225	175.550677	-148.504977	320.813481	159.173628	-94.864960	120.915080	1073.688266	-474.007444	206.671144	1068.256287	-481.750908	219.728392	1099.821347	-467.210657	280.175089	1019.525313	-496.714735	415.388172	933.974132	-484.786651	451.859003	912.829549	-374.474367	358.466807	838.045288	-498.253160	319.091511	765.042543	-470.592393	244.596864	716.668855	-462.528352	341.537295	752.279563	-440.856857	142.479009	615.317948	-441.515638	138.382797	621.043525	-355.733935	59.233077	631.650157	-395.938053	322.622158	482.533809	-402.187963	248.362991	494.435148	-353.082650	242.738874	482.525353	-463.763024	-179.936479	940.793086	-278.834668	-4.400858	85.576563	-483.919087	-15.874181	80.303684	-83.308340	
